<svg xmlns="http://www.w3.org/2000/svg" viewBox="0 0 20 20"><path d="M16 20c-1.77 0-3.655-.502-5.6-1.492-1.793-.913-3.564-2.22-5.122-3.78S2.415 11.395 1.503 9.6C.515 7.656.013 5.77.013 4c0-1.148 1.07-2.257 1.53-2.68C2.202.71 3.242 0 3.998 0c.375 0 .815.246 1.386.774.425.394.904.928 1.383 1.544.288.372 1.73 2.27 1.73 3.182 0 .747-.846 1.267-1.74 1.816-.346.212-.703.432-.96.64-.277.22-.326.337-.334.363.95 2.365 3.85 5.266 6.215 6.214.022-.007.14-.053.364-.333.207-.257.427-.615.64-.96.55-.894 1.068-1.74 1.815-1.74.91 0 2.81 1.442 3.18 1.73.617.48 1.15.96 1.545 1.384.528.57.774 1.01.774 1.387 0 .757-.712 1.8-1.32 2.464C18.256 18.926 17.147 20 16 20zM3.994 1c-.268.005-.99.333-1.773 1.055C1.478 2.74 1.015 3.485 1.015 4c0 6.73 8.264 15 14.986 15 .513 0 1.258-.465 1.944-1.213.723-.788 1.05-1.512 1.056-1.78-.032-.19-.558-.93-1.997-2.038-1.237-.953-2.24-1.464-2.498-1.47-.018.005-.13.048-.357.336-.197.25-.408.594-.613.926-.56.91-1.09 1.772-1.858 1.772-.124 0-.246-.024-.363-.07-2.625-1.05-5.73-4.155-6.78-6.78-.125-.315-.145-.81.475-1.37.33-.3.785-.58 1.227-.852.332-.204.676-.415.926-.613.288-.228.33-.34.336-.358-.008-.258-.518-1.26-1.47-2.498C4.922 1.554 4.183 1.03 3.993.997z"/></svg>